{
  "asset": {
    "version": "2.0",
    "generator": "THREE.GLTFExporter"
  },
  "scenes": [
    {
      "name": "Scene",
      "nodes": [
        10
      ]
    }
  ],
  "scene": 0,
  "nodes": [
    {
      "matrix": [
        -0.0496483660298336,
        0.08679137033370063,
        -0.00151555952092754,
        0,
        -0.08565936495899995,
        -0.04926854659816716,
        -0.015332405172496228,
        0,
        -0.014053899098965237,
        -0.006314070727444167,
        0.09880597512146982,
        0,
        -0.06749614328145981,
        -0.09755273163318634,
        -0.4479440748691559,
        1
      ],
      "name": "a1",
      "extras": {
        "name": "Icosphere"
      },
      "mesh": 0
    },
    {
      "matrix": [
        -0.0496483660298336,
        0.08679137033370063,
        -0.00151555952092754,
        0,
        -0.08565936495899995,
        -0.04926854659816716,
        -0.015332405172496228,
        0,
        -0.014053899098965237,
        -0.006314070727444167,
        0.09880597512146982,
        0,
        0.3381679058074951,
        -0.09403148293495178,
        -0.025089850649237633,
        1
      ],
      "name": "a2",
      "extras": {
        "name": "Icosphere.001"
      },
      "mesh": 1
    },
    {
      "matrix": [
        -0.0496483660298336,
        0.08679137033370063,
        -0.00151555952092754,
        0,
        -0.08565936495899995,
        -0.04926854659816716,
        -0.015332405172496228,
        0,
        -0.014053899098965237,
        -0.006314070727444167,
        0.09880597512146982,
        0,
        -0.16045497357845306,
        -0.11442184448242188,
        0.36427050828933716,
        1
      ],
      "name": "a3",
      "extras": {
        "name": "Icosphere.002"
      },
      "mesh": 2
    },
    {
      "matrix": [
        -0.0496483660298336,
        0.08679137033370063,
        -0.00151555952092754,
        0,
        -0.08565936495899995,
        -0.04926854659816716,
        -0.015332405172496228,
        0,
        -0.014053899098965237,
        -0.006314070727444167,
        0.09880597512146982,
        0,
        0.29830509424209595,
        -0.1124940812587738,
        0.624320924282074,
        1
      ],
      "name": "a4",
      "extras": {
        "name": "Icosphere.003"
      },
      "mesh": 3
    },
    {
      "matrix": [
        -0.0496483660298336,
        0.08679137033370063,
        -0.00151555952092754,
        0,
        -0.08565936495899995,
        -0.04926854659816716,
        -0.015332405172496228,
        0,
        -0.014053899098965237,
        -0.006314070727444167,
        0.09880597512146982,
        0,
        -0.2827972173690796,
        -0.10815747082233429,
        -0.07138632982969284,
        1
      ],
      "name": "a5",
      "extras": {
        "name": "Icosphere.004"
      },
      "mesh": 4
    },
    {
      "matrix": [
        -0.0496483660298336,
        0.08679137033370063,
        -0.00151555952092754,
        0,
        -0.08565936495899995,
        -0.04926854659816716,
        -0.015332405172496228,
        0,
        -0.014053899098965237,
        -0.006314070727444167,
        0.09880597512146982,
        0,
        0.8808366060256958,
        -0.09912683069705963,
        -0.3308183550834656,
        1
      ],
      "name": "a6",
      "extras": {
        "name": "Icosphere.005"
      },
      "mesh": 5
    },
    {
      "matrix": [
        -0.0496483660298336,
        0.08679137033370063,
        -0.00151555952092754,
        0,
        -0.08565936495899995,
        -0.04926854659816716,
        -0.015332405172496228,
        0,
        -0.014053899098965237,
        -0.006314070727444167,
        0.09880597512146982,
        0,
        0.4245140850543976,
        -0.08394663035869598,
        -0.6048916578292847,
        1
      ],
      "name": "a7",
      "extras": {
        "name": "Icosphere.006"
      },
      "mesh": 6
    },
    {
      "matrix": [
        -0.0496483660298336,
        0.08679137033370063,
        -0.00151555952092754,
        0,
        -0.08565936495899995,
        -0.04926854659816716,
        -0.015332405172496228,
        0,
        -0.014053899098965237,
        -0.006314070727444167,
        0.09880597512146982,
        0,
        0.966657280921936,
        -0.10192786157131195,
        0.082850381731987,
        1
      ],
      "name": "a8",
      "extras": {
        "name": "Icosphere.008"
      },
      "mesh": 7
    },
    {
      "matrix": [
        -0.05606404327922845,
        0.0415489121447458,
        0.07162758169020939,
        0,
        -0.08209739574864294,
        -0.01659858153392196,
        -0.05463061788177376,
        0,
        -0.010809263179797616,
        -0.0894325147719881,
        0.043416415589735385,
        0,
        0.7680946588516235,
        -0.10644564032554626,
        0.4560086727142334,
        1
      ],
      "name": "a9",
      "extras": {
        "name": "Icosphere.009"
      },
      "mesh": 8
    },
    {
      "matrix": [
        0.7876474778933199,
        0,
        0.0722414177424727,
        0,
        0,
        0.2386568784713745,
        0,
        0,
        -0.0722414177424727,
        0,
        0.7876474778933199,
        0,
        0.3518681228160858,
        0.2099585235118866,
        0.003780326573178172,
        1
      ],
      "name": "Cone",
      "extras": {
        "name": "Cone"
      },
      "mesh": 9
    },
    {
      "name": "deng.glb",
      "children": [
        0,
        1,
        2,
        3,
        4,
        5,
        6,
        7,
        8,
        9
      ]
    }
  ],
  "bufferViews": [
    {
      "buffer": 0,
      "byteOffset": 0,
      "byteLength": 2880,
      "target": 34962,
      "byteStride": 12
    },
    {
      "buffer": 0,
      "byteOffset": 2880,
      "byteLength": 2880,
      "target": 34962,
      "byteStride": 12
    },
    {
      "buffer": 0,
      "byteOffset": 5760,
      "byteLength": 1920,
      "target": 34962,
      "byteStride": 8
    },
    {
      "buffer": 0,
      "byteOffset": 7680,
      "byteLength": 480,
      "target": 34963
    },
    {
      "buffer": 0,
      "byteOffset": 8160,
      "byteLength": 2880,
      "target": 34962,
      "byteStride": 12
    },
    {
      "buffer": 0,
      "byteOffset": 11040,
      "byteLength": 2880,
      "target": 34962,
      "byteStride": 12
    },
    {
      "buffer": 0,
      "byteOffset": 13920,
      "byteLength": 1920,
      "target": 34962,
      "byteStride": 8
    },
    {
      "buffer": 0,
      "byteOffset": 15840,
      "byteLength": 2880,
      "target": 34962,
      "byteStride": 12
    },
    {
      "buffer": 0,
      "byteOffset": 18720,
      "byteLength": 2880,
      "target": 34962,
      "byteStride": 12
    },
    {
      "buffer": 0,
      "byteOffset": 21600,
      "byteLength": 1920,
      "target": 34962,
      "byteStride": 8
    },
    {
      "buffer": 0,
      "byteOffset": 23520,
      "byteLength": 2880,
      "target": 34962,
      "byteStride": 12
    },
    {
      "buffer": 0,
      "byteOffset": 26400,
      "byteLength": 2880,
      "target": 34962,
      "byteStride": 12
    },
    {
      "buffer": 0,
      "byteOffset": 29280,
      "byteLength": 1920,
      "target": 34962,
      "byteStride": 8
    },
    {
      "buffer": 0,
      "byteOffset": 31200,
      "byteLength": 2880,
      "target": 34962,
      "byteStride": 12
    },
    {
      "buffer": 0,
      "byteOffset": 34080,
      "byteLength": 2880,
      "target": 34962,
      "byteStride": 12
    },
    {
      "buffer": 0,
      "byteOffset": 36960,
      "byteLength": 1920,
      "target": 34962,
      "byteStride": 8
    },
    {
      "buffer": 0,
      "byteOffset": 38880,
      "byteLength": 2880,
      "target": 34962,
      "byteStride": 12
    },
    {
      "buffer": 0,
      "byteOffset": 41760,
      "byteLength": 2880,
      "target": 34962,
      "byteStride": 12
    },
    {
      "buffer": 0,
      "byteOffset": 44640,
      "byteLength": 1920,
      "target": 34962,
      "byteStride": 8
    },
    {
      "buffer": 0,
      "byteOffset": 46560,
      "byteLength": 2880,
      "target": 34962,
      "byteStride": 12
    },
    {
      "buffer": 0,
      "byteOffset": 49440,
      "byteLength": 2880,
      "target": 34962,
      "byteStride": 12
    },
    {
      "buffer": 0,
      "byteOffset": 52320,
      "byteLength": 1920,
      "target": 34962,
      "byteStride": 8
    },
    {
      "buffer": 0,
      "byteOffset": 54240,
      "byteLength": 2880,
      "target": 34962,
      "byteStride": 12
    },
    {
      "buffer": 0,
      "byteOffset": 57120,
      "byteLength": 2880,
      "target": 34962,
      "byteStride": 12
    },
    {
      "buffer": 0,
      "byteOffset": 60000,
      "byteLength": 1920,
      "target": 34962,
      "byteStride": 8
    },
    {
      "buffer": 0,
      "byteOffset": 61920,
      "byteLength": 2880,
      "target": 34962,
      "byteStride": 12
    },
    {
      "buffer": 0,
      "byteOffset": 64800,
      "byteLength": 2880,
      "target": 34962,
      "byteStride": 12
    },
    {
      "buffer": 0,
      "byteOffset": 67680,
      "byteLength": 1920,
      "target": 34962,
      "byteStride": 8
    },
    {
      "buffer": 0,
      "byteOffset": 69600,
      "byteLength": 1536,
      "target": 34962,
      "byteStride": 12
    },
    {
      "buffer": 0,
      "byteOffset": 71136,
      "byteLength": 1536,
      "target": 34962,
      "byteStride": 12
    },
    {
      "buffer": 0,
      "byteOffset": 72672,
      "byteLength": 1024,
      "target": 34962,
      "byteStride": 8
    },
    {
      "buffer": 0,
      "byteOffset": 73696,
      "byteLength": 372,
      "target": 34963
    }
  ],
  "buffers": [
    {
      "byteLength": 74068,
      "uri": "data:application/octet-stream;base64,"
    }
  ],
  "accessors": [
    {
      "bufferView": 0,
      "componentType": 5126,
      "count": 240,
      "max": [
        0.9510578513145447,
        1,
        0.9999999403953552
      ],
      "min": [
        -0.9510578513145447,
        -1,
        -0.9999999403953552
      ],
      "type": "VEC3"
    },
    {
      "bufferView": 1,
      "componentType": 5126,
      "count": 240,
      "max": [
        0.9920774102210999,
        0.9435237646102905,
        0.9435215592384338
      ],
      "min": [
        -0.9920774102210999,
        -0.9435237646102905,
        -0.9435215592384338
      ],
      "type": "VEC3"
    },
    {
      "bufferView": 2,
      "componentType": 5126,
      "count": 240,
      "max": [
        1,
        1
      ],
      "min": [
        0,
        0.5276179909706116
      ],
      "type": "VEC2"
    },
    {
      "bufferView": 3,
      "componentType": 5123,
      "count": 240,
      "max": [
        239
      ],
      "min": [
        0
      ],
      "type": "SCALAR"
    },
    {
      "bufferView": 4,
      "componentType": 5126,
      "count": 240,
      "max": [
        0.9510578513145447,
        1,
        0.9999999403953552
      ],
      "min": [
        -0.9510578513145447,
        -1,
        -0.9999999403953552
      ],
      "type": "VEC3"
    },
    {
      "bufferView": 5,
      "componentType": 5126,
      "count": 240,
      "max": [
        0.9920774102210999,
        0.9435237646102905,
        0.9435215592384338
      ],
      "min": [
        -0.9920774102210999,
        -0.9435237646102905,
        -0.9435215592384338
      ],
      "type": "VEC3"
    },
    {
      "bufferView": 6,
      "componentType": 5126,
      "count": 240,
      "max": [
        1,
        1
      ],
      "min": [
        0,
        0.5276179909706116
      ],
      "type": "VEC2"
    },
    {
      "bufferView": 7,
      "componentType": 5126,
      "count": 240,
      "max": [
        0.9510578513145447,
        1,
        0.9999999403953552
      ],
      "min": [
        -0.9510578513145447,
        -1,
        -0.9999999403953552
      ],
      "type": "VEC3"
    },
    {
      "bufferView": 8,
      "componentType": 5126,
      "count": 240,
      "max": [
        0.9920774102210999,
        0.9435237646102905,
        0.9435215592384338
      ],
      "min": [
        -0.9920774102210999,
        -0.9435237646102905,
        -0.9435215592384338
      ],
      "type": "VEC3"
    },
    {
      "bufferView": 9,
      "componentType": 5126,
      "count": 240,
      "max": [
        1,
        1
      ],
      "min": [
        0,
        0.5276179909706116
      ],
      "type": "VEC2"
    },
    {
      "bufferView": 10,
      "componentType": 5126,
      "count": 240,
      "max": [
        0.9510578513145447,
        1,
        0.9999999403953552
      ],
      "min": [
        -0.9510578513145447,
        -1,
        -0.9999999403953552
      ],
      "type": "VEC3"
    },
    {
      "bufferView": 11,
      "componentType": 5126,
      "count": 240,
      "max": [
        0.9920774102210999,
        0.9435237646102905,
        0.9435215592384338
      ],
      "min": [
        -0.9920774102210999,
        -0.9435237646102905,
        -0.9435215592384338
      ],
      "type": "VEC3"
    },
    {
      "bufferView": 12,
      "componentType": 5126,
      "count": 240,
      "max": [
        1,
        1
      ],
      "min": [
        0,
        0.5276179909706116
      ],
      "type": "VEC2"
    },
    {
      "bufferView": 13,
      "componentType": 5126,
      "count": 240,
      "max": [
        0.9510578513145447,
        1,
        0.9999999403953552
      ],
      "min": [
        -0.9510578513145447,
        -1,
        -0.9999999403953552
      ],
      "type": "VEC3"
    },
    {
      "bufferView": 14,
      "componentType": 5126,
      "count": 240,
      "max": [
        0.9920774102210999,
        0.9435237646102905,
        0.9435215592384338
      ],
      "min": [
        -0.9920774102210999,
        -0.9435237646102905,
        -0.9435215592384338
      ],
      "type": "VEC3"
    },
    {
      "bufferView": 15,
      "componentType": 5126,
      "count": 240,
      "max": [
        1,
        1
      ],
      "min": [
        0,
        0.5276179909706116
      ],
      "type": "VEC2"
    },
    {
      "bufferView": 16,
      "componentType": 5126,
      "count": 240,
      "max": [
        0.9510578513145447,
        1,
        0.9999999403953552
      ],
      "min": [
        -0.9510578513145447,
        -1,
        -0.9999999403953552
      ],
      "type": "VEC3"
    },
    {
      "bufferView": 17,
      "componentType": 5126,
      "count": 240,
      "max": [
        0.9920774102210999,
        0.9435237646102905,
        0.9435215592384338
      ],
      "min": [
        -0.9920774102210999,
        -0.9435237646102905,
        -0.9435215592384338
      ],
      "type": "VEC3"
    },
    {
      "bufferView": 18,
      "componentType": 5126,
      "count": 240,
      "max": [
        1,
        1
      ],
      "min": [
        0,
        0.5276179909706116
      ],
      "type": "VEC2"
    },
    {
      "bufferView": 19,
      "componentType": 5126,
      "count": 240,
      "max": [
        0.9510578513145447,
        1,
        0.9999999403953552
      ],
      "min": [
        -0.9510578513145447,
        -1,
        -0.9999999403953552
      ],
      "type": "VEC3"
    },
    {
      "bufferView": 20,
      "componentType": 5126,
      "count": 240,
      "max": [
        0.9920774102210999,
        0.9435237646102905,
        0.9435215592384338
      ],
      "min": [
        -0.9920774102210999,
        -0.9435237646102905,
        -0.9435215592384338
      ],
      "type": "VEC3"
    },
    {
      "bufferView": 21,
      "componentType": 5126,
      "count": 240,
      "max": [
        1,
        1
      ],
      "min": [
        0,
        0.5276179909706116
      ],
      "type": "VEC2"
    },
    {
      "bufferView": 22,
      "componentType": 5126,
      "count": 240,
      "max": [
        0.9510578513145447,
        1,
        0.9999999403953552
      ],
      "min": [
        -0.9510578513145447,
        -1,
        -0.9999999403953552
      ],
      "type": "VEC3"
    },
    {
      "bufferView": 23,
      "componentType": 5126,
      "count": 240,
      "max": [
        0.9920774102210999,
        0.9435237646102905,
        0.9435215592384338
      ],
      "min": [
        -0.9920774102210999,
        -0.9435237646102905,
        -0.9435215592384338
      ],
      "type": "VEC3"
    },
    {
      "bufferView": 24,
      "componentType": 5126,
      "count": 240,
      "max": [
        1,
        1
      ],
      "min": [
        0,
        0.5276179909706116
      ],
      "type": "VEC2"
    },
    {
      "bufferView": 25,
      "componentType": 5126,
      "count": 240,
      "max": [
        0.9510578513145447,
        1,
        0.9999999403953552
      ],
      "min": [
        -0.9510578513145447,
        -1,
        -0.9999999403953552
      ],
      "type": "VEC3"
    },
    {
      "bufferView": 26,
      "componentType": 5126,
      "count": 240,
      "max": [
        0.9920774102210999,
        0.9435237646102905,
        0.9435215592384338
      ],
      "min": [
        -0.9920774102210999,
        -0.9435237646102905,
        -0.9435215592384338
      ],
      "type": "VEC3"
    },
    {
      "bufferView": 27,
      "componentType": 5126,
      "count": 240,
      "max": [
        1,
        1
      ],
      "min": [
        0,
        0.5276179909706116
      ],
      "type": "VEC2"
    },
    {
      "bufferView": 28,
      "componentType": 5126,
      "count": 128,
      "max": [
        1,
        1,
        1
      ],
      "min": [
        -1,
        -1,
        -1
      ],
      "type": "VEC3"
    },
    {
      "bufferView": 29,
      "componentType": 5126,
      "count": 128,
      "max": [
        0.8909767270088196,
        0.44548845291137695,
        0.8909767270088196
      ],
      "min": [
        -0.8909767270088196,
        -0.9999999403953552,
        -0.8909767270088196
      ],
      "type": "VEC3"
    },
    {
      "bufferView": 30,
      "componentType": 5126,
      "count": 128,
      "max": [
        0.9900000095367432,
        0.9900000095367432
      ],
      "min": [
        0.01000000536441803,
        0.5099999904632568
      ],
      "type": "VEC2"
    },
    {
      "bufferView": 31,
      "componentType": 5123,
      "count": 186,
      "max": [
        127
      ],
      "min": [
        0
      ],
      "type": "SCALAR"
    }
  ],
  "materials": [
    {
      "pbrMetallicRoughness": {
        "metallicFactor": 1,
        "roughnessFactor": 1
      }
    }
  ],
  "meshes": [
    {
      "primitives": [
        {
          "mode": 4,
          "attributes": {
            "POSITION": 0,
            "NORMAL": 1,
            "TEXCOORD_0": 2
          },
          "indices": 3,
          "material": 0
        }
      ]
    },
    {
      "primitives": [
        {
          "mode": 4,
          "attributes": {
            "POSITION": 4,
            "NORMAL": 5,
            "TEXCOORD_0": 6
          },
          "indices": 3,
          "material": 0
        }
      ]
    },
    {
      "primitives": [
        {
          "mode": 4,
          "attributes": {
            "POSITION": 7,
            "NORMAL": 8,
            "TEXCOORD_0": 9
          },
          "indices": 3,
          "material": 0
        }
      ]
    },
    {
      "primitives": [
        {
          "mode": 4,
          "attributes": {
            "POSITION": 10,
            "NORMAL": 11,
            "TEXCOORD_0": 12
          },
          "indices": 3,
          "material": 0
        }
      ]
    },
    {
      "primitives": [
        {
          "mode": 4,
          "attributes": {
            "POSITION": 13,
            "NORMAL": 14,
            "TEXCOORD_0": 15
          },
          "indices": 3,
          "material": 0
        }
      ]
    },
    {
      "primitives": [
        {
          "mode": 4,
          "attributes": {
            "POSITION": 16,
            "NORMAL": 17,
            "TEXCOORD_0": 18
          },
          "indices": 3,
          "material": 0
        }
      ]
    },
    {
      "primitives": [
        {
          "mode": 4,
          "attributes": {
            "POSITION": 19,
            "NORMAL": 20,
            "TEXCOORD_0": 21
          },
          "indices": 3,
          "material": 0
        }
      ]
    },
    {
      "primitives": [
        {
          "mode": 4,
          "attributes": {
            "POSITION": 22,
            "NORMAL": 23,
            "TEXCOORD_0": 24
          },
          "indices": 3,
          "material": 0
        }
      ]
    },
    {
      "primitives": [
        {
          "mode": 4,
          "attributes": {
            "POSITION": 25,
            "NORMAL": 26,
            "TEXCOORD_0": 27
          },
          "indices": 3,
          "material": 0
        }
      ]
    },
    {
      "primitives": [
        {
          "mode": 4,
          "attributes": {
            "POSITION": 28,
            "NORMAL": 29,
            "TEXCOORD_0": 30
          },
          "indices": 31,
          "material": 0
        }
      ]
    }
  ]
}